# xmcd CD database file
#
# Track frame offsets:
#	150
#	19266
#	40992
#	56133
#	78746
#	101008
#	120560
#	146964
#	168628
#	188153
#	206219
#	238348
#	258701
#
# Disc length: 3717 seconds
#
# Revision: 0
# Processed by: cddbd v1.4PL0 Copyright (c) Steve Scherf et al.
# Submitted via: CDex 1.51
#
DISCID=ce0e830d
DTITLE=Muggsy Spanier - Memphis Blues
DYEAR=2002
DGENRE=Jazz
TTITLE0=Royal Garden blues
TTITLE1=Basin Street blues
TTITLE2=Dippermouth blues
TTITLE3=Squeeze me
TTITLE4=Rose room
TTITLE5=St. Louis blues
TTITLE6=Riverside blues
TTITLE7=Farewell blues
TTITLE8=If I had You
TTITLE9=Sister Kate
TTITLE10=Moonglow
TTITLE11=That da da strain
TTITLE12=Memphis blues
EXTD=YEAR: 2002
EXTT0=
EXTT1=
EXTT2=
EXTT3=
EXTT4=
EXTT5=
EXTT6=
EXTT7=
EXTT8=
EXTT9=
EXTT10=
EXTT11=
EXTT12=
PLAYORDER=
